<svg enable-background="new 0 0 512 512" viewBox="0 0 512 512" xmlns="http://www.w3.org/2000/svg" id="fi_13467861"><g id="Livello_1"></g><g id="Livello_2"><g fill="currentColor"><path d="m365.753 256.599c.269.345.367.47.304.385.165.215.329.43.492.646 2.393 3.171 4.625 6.463 6.721 9.837 4.371 7.036 8.169 14.427 11.585 21.97.403.89.799 1.783 1.189 2.679.156.359.311.719.465 1.08.036.09.365.868.374.89.756 1.826 1.483 3.663 2.182 5.512 1.406 3.723 2.695 7.491 3.852 11.299 2.313 7.613 4.072 15.375 5.215 23.25.019.131.033.225.045.305.009.082.021.18.037.318.058.488.12.976.176 1.464.093.812.179 1.625.256 2.438.201 2.104.349 4.213.44 6.324.166 3.851.141 7.712-.105 11.559-.112 1.743-.269 3.484-.474 5.219-.008.066-.097.748-.116.909-.05.35-.1.699-.154 1.048-.169 1.089-.358 2.175-.567 3.257-.715 3.69-1.669 7.335-2.886 10.891-.253.74-.517 1.476-.793 2.207-.165.439-.335.877-.508 1.313-.017.042-.226.55-.314.768-.71 1.657-1.486 3.288-2.321 4.885-1.701 3.255-3.658 6.365-5.829 9.326-1.552 2.117-.425 5.669 1.794 6.841 2.604 1.376 5.184.466 6.841-1.794 9.895-13.497 14.634-29.953 15.421-46.543.797-16.801-2.318-33.795-7.485-49.735-5.34-16.473-12.815-32.705-22.501-47.085-7.664-11.378-17.163-21.801-28.704-29.225 1.948-9.011 2.435-18.338 1.294-27.48-1.958-15.698-7.867-30.753-17.179-43.562-9.239-12.708-21.386-23.413-35.641-30.158-14.17-6.705-29.919-9.495-45.53-7.857-4.025.422-8.024 1.099-11.965 2.018-4.547-15.675-14.537-29.629-29.484-36.813-16.03-7.705-34.211-7.744-51.485-5.366-18.743 2.58-37.268 7.807-54.861 14.709-8.928 3.503-17.676 7.458-26.181 11.889-2.324 1.21-3.208 4.648-1.794 6.841 1.526 2.367 4.356 3.088 6.841 1.794 16.158-8.417 32.643-14.865 50.406-19.678 8.559-2.319 17.253-4.26 26.023-5.59.494-.075.988-.144 1.482-.218.151-.022.255-.038.339-.051.082-.01.179-.022.315-.039.829-.105 1.659-.207 2.49-.3 2.164-.242 4.334-.435 6.508-.569 3.993-.247 8.001-.3 11.997-.09 1.81.095 3.618.244 5.418.454.048.006.832.111.958.125.371.055.743.109 1.113.17 1.123.182 2.242.391 3.354.627 1.736.369 3.458.806 5.157 1.318.922.278 1.838.578 2.745.901.453.161.904.328 1.352.501.118.046 1.078.448 1.238.507 3.395 1.517 6.615 3.358 9.61 5.565.092.068.148.108.178.128.044.036.09.074.148.12.357.289.713.579 1.063.876.696.591 1.374 1.202 2.035 1.833 1.31 1.251 2.548 2.578 3.71 3.968.214.256.422.516.63.776.058.08.494.643.535.698.534.728 1.049 1.469 1.545 2.223.994 1.512 1.911 3.075 2.752 4.677.422.805.826 1.619 1.21 2.443.193.413.376.83.565 1.245.047.102.082.178.112.243.025.066.055.143.095.245.673 1.711 1.305 3.431 1.852 5.188.148.475.278.956.415 1.434-7.803 2.706-15.248 6.428-22.038 11.172-6.347 4.435-12.186 9.61-17.106 15.6-5.763 7.016-11.436 15.225-12.16 24.534-1.181 15.198 14.424 24.916 28.089 24.565 16.85-.433 27.918-15.051 32.554-29.921 3.842-12.325 4.583-26.093 2.459-39.029.912-.217 1.827-.421 2.746-.609 1.602-.327 3.213-.59 4.827-.847.1-.016.178-.029.243-.039.056-.006.116-.013.193-.023.442-.053.884-.108 1.327-.157 1.032-.114 2.067-.209 3.103-.285 3.401-.25 6.817-.298 10.224-.132 1.776.086 3.55.23 5.317.432.091.01.651.081.835.102.307.044.615.087.921.134.879.136 1.757.286 2.631.452 3.515.666 6.983 1.578 10.373 2.722 1.612.544 3.202 1.146 4.777 1.789.212.09.65.274.71.301.341.15.682.303 1.021.458.882.403 1.757.821 2.624 1.254 3.202 1.601 6.299 3.408 9.274 5.399 1.482.992 2.93 2.032 4.351 3.109.029.023.055.042.072.056.351.279.703.556 1.051.839.813.659 1.614 1.332 2.404 2.019 2.71 2.358 5.28 4.876 7.695 7.535 1.108 1.22 2.183 2.47 3.225 3.747.284.348.562.702.845 1.052.076.093.13.16.176.216.039.053.086.115.145.193.632.838 1.256 1.681 1.863 2.537 2.08 2.935 3.99 5.991 5.715 9.147.79 1.446 1.542 2.914 2.253 4.4.388.811.763 1.627 1.127 2.449.028.062.244.564.327.753.189.454.375.91.556 1.367 1.319 3.34 2.438 6.759 3.336 10.236.411 1.594.778 3.199 1.096 4.813.174.881.333 1.765.479 2.652.073.443.136.888.207 1.332.024.167.039.274.049.347.014.109.028.219.041.328.426 3.489.619 7.003.574 10.517-.023 1.8-.108 3.6-.253 5.395-.073.899-.16 1.796-.263 2.692.002-.015-.04.33-.071.597-.033.212-.154 1.088-.172 1.203-.094.61-.205 1.217-.314 1.825-.522-.239-1.038-.489-1.567-.716-16.383-7.015-35.314-8.48-51.584-.281-7.508 3.783-14.336 9.883-18.064 17.505-3.691 7.544-4.623 16.705-1.597 24.654 3.121 8.197 9.649 14.287 18.17 16.568 7.964 2.131 16.782 1.088 24.379-1.923 14.727-5.836 26.309-18.012 33.089-32.166 1.33-2.775 2.501-5.629 3.518-8.538.014.01.028.018.041.027.412.287.821.579 1.227.875.11.08 1.01.757 1.109.826 3.216 2.5 6.232 5.27 9.06 8.199 1.311 1.357 2.582 2.754 3.814 4.183.673.781 1.334 1.571 1.984 2.371.324.398.643.803.966 1.205zm-131.68-101.154c-.034.311-.073.622-.11.932-.012.073-.109.821-.123.911-.114.759-.239 1.516-.375 2.272-.356 1.974-.789 3.934-1.31 5.87-.44 1.635-.941 3.254-1.513 4.848-.28.781-.58 1.555-.898 2.322-.096.213-.297.671-.321.724-.252.55-.514 1.096-.786 1.637-.742 1.472-1.56 2.907-2.464 4.286-.438.668-.901 1.321-1.381 1.96-.143.176-.438.547-.479.597-.378.452-.768.894-1.169 1.326-1.037 1.117-2.156 2.157-3.34 3.117-.177.13-.575.433-.628.471-.366.257-.737.507-1.114.748-.813.52-1.648 1.008-2.516 1.431-.231.113-1.369.563-.134.087-.227.087-.451.178-.679.261-.685.25-1.382.464-2.088.645-.711.182-1.427.312-2.148.444-.003 0-.005.001-.008.001-.038.002-.071.003-.119.006-.49.03-.977.081-1.468.101-1.356.054-2.7-.024-4.049-.151-.002 0-.003 0-.005 0-.039-.008-.075-.016-.126-.026-.361-.073-.724-.13-1.085-.205-.777-.164-1.547-.361-2.307-.593-.64-.195-1.263-.429-1.892-.653-.03-.01-.048-.017-.074-.026-.022-.011-.038-.019-.063-.031-.323-.158-.65-.304-.97-.467-.634-.322-1.253-.672-1.856-1.05-.258-.162-1.298-.959-1.324-.94-.799-.704-1.543-1.437-2.264-2.219.056.018-.747-.984-.914-1.259-.307-.504-.565-1.026-.823-1.553.404.798-.305-.897-.407-1.275-.09-.333-.168-.668-.236-1.007-.021-.114-.042-.228-.064-.342-.088-.555-.077-.459.033.285-.314-.354-.085-2.09-.065-2.507.014-.298.039-.598.07-.896.015-.086.037-.212.071-.422.067-.35.143-.697.227-1.043.934-3.843 2.805-7.003 5.182-10.579.493-.741.999-1.474 1.519-2.197.259-.361.522-.72.788-1.076.037-.05.331-.43.469-.611 1.044-1.321 2.126-2.612 3.253-3.862 2.374-2.633 4.929-5.102 7.632-7.395.677-.574 1.369-1.127 2.056-1.687.086-.07.15-.122.203-.167.051-.038.112-.084.186-.14.236-.178.472-.356.709-.533 1.544-1.147 3.128-2.241 4.747-3.28 2.994-1.922 6.109-3.657 9.316-5.197.803-.386 1.612-.759 2.426-1.12.271-.12.544-.239.816-.357.083-.036.152-.066.209-.092.064-.025.14-.054.239-.094 1.111-.438 2.225-.861 3.345-1.271.027.191.056.394.07.481.043.343.086.685.125 1.028.105.93.194 1.862.268 2.795.148 1.866.234 3.738.261 5.61.058 3.715-.119 7.434-.525 11.127zm74.92-9.921c-.448-.34-.193-.148 0 0zm27.621 94.195c-.034.086-.063.157-.086.216-.029.063-.063.137-.108.235-.246.542-.484 1.087-.737 1.626-1.504 3.215-3.244 6.322-5.221 9.271-.491.733-.997 1.455-1.517 2.168-.187.257-.379.51-.57.764-.093.115-.476.607-.524.667-1.103 1.366-2.264 2.686-3.48 3.952-1.114 1.159-2.275 2.274-3.48 3.337-.659.581-1.339 1.134-2.014 1.696-.084.07-.146.123-.199.167-.049.036-.107.078-.177.13-.472.349-.944.698-1.424 1.037-1.327.934-2.695 1.809-4.1 2.621-.774.447-1.559.878-2.357 1.282-.404.205-.812.403-1.223.595-.275.128-.552.254-.829.376.496-.202.472-.193-.07.029-1.573.616-3.164 1.167-4.796 1.606-.889.239-1.786.449-2.69.627-.451.089-.904.159-1.355.243-.133.02-.226.034-.3.045-.212.025-.424.05-.636.071-1.646.163-3.304.214-4.957.133-.445-.022-.889-.053-1.332-.094-.102-.01-.673-.095-.84-.116-.867-.154-1.729-.328-2.579-.564-.7-.194-1.375-.44-2.063-.671-.086-.029-.156-.052-.215-.07-.051-.027-.112-.058-.186-.096-.387-.195-.779-.376-1.16-.582-.77-.415-1.489-.894-2.216-1.376-.081-.054-.145-.095-.199-.129-.048-.046-.104-.099-.18-.169-.441-.403-.892-.787-1.313-1.212-.437-.441-.854-.906-1.246-1.388-.073-.117-.448-.637-.49-.701-.244-.369-.476-.745-.697-1.129-.221-.383-.429-.774-.626-1.17-.037-.075-.285-.641-.353-.777-.274-.712-.519-1.436-.723-2.171-.24-.865-.41-1.738-.577-2.619-.016-.082-.029-.148-.04-.205-.002-.066-.006-.145-.012-.246-.026-.45-.074-.897-.093-1.347-.04-.902-.034-1.805.017-2.707.026-.452.071-.901.11-1.351.008-.09.012-.154.016-.208.015-.063.033-.141.057-.253.356-1.665.755-3.28 1.349-4.873.079-.173.321-.751.352-.815.202-.422.415-.84.638-1.252.444-.822.927-1.622 1.445-2.399.259-.389.532-.766.802-1.146.07-.099.12-.171.162-.232.052-.057.115-.127.203-.228.616-.705 1.221-1.414 1.876-2.085.601-.615 1.225-1.208 1.869-1.778.293-.26.59-.516.891-.766.187-.156.377-.308.567-.46.063-.047.152-.114.278-.208 1.551-1.093 3.126-2.124 4.798-3.025.695-.374 1.4-.729 2.114-1.065.346-.163.696-.319 1.047-.472.106-.033 1.12-.437 1.242-.482 1.859-.686 3.764-1.252 5.694-1.701.803-.187 1.612-.353 2.423-.499.487-.088.974-.165 1.463-.241.605-.088.652-.094.139-.019.327-.039.654-.075.982-.108 3.961-.397 7.903-.28 11.857.12.144.015.245.024.328.031.081.014.179.03.317.052.493.078.985.154 1.477.239.82.143 1.638.303 2.452.479 2.126.459 4.228 1.028 6.298 1.696 3.569 1.152 5.855 2.086 8.902 3.651-.419 1.331-.863 2.655-1.354 3.962-.265.696-.543 1.389-.821 2.081z"></path><path d="m434.442 396.127c-1.52-2.357-4.363-3.101-6.841-1.794-14.82 7.821-29.64 15.641-44.46 23.462-1.684.888-3.367 1.777-5.051 2.665.221-16.566-.587-33.142-2.456-49.606-.649-5.721-1.419-11.429-2.296-17.119-.4-2.593-3.787-4.257-6.151-3.492-2.822.913-3.921 3.372-3.492 6.151.361 2.342.697 4.687 1.024 7.034.005.034.006.042.01.068.003.024.004.031.008.061.032.243.064.486.096.729.074.567.147 1.134.218 1.702.153 1.216.301 2.433.443 3.65.559 4.788 1.029 9.587 1.411 14.392.757 9.529 1.166 19.087 1.226 28.646.034 5.393-.047 10.785-.233 16.175-.136 3.95 4.304 6.016 7.524 4.317 14.82-7.82 29.64-15.641 44.46-23.462 4.255-2.245 8.51-4.491 12.766-6.737 2.317-1.223 3.214-4.64 1.794-6.842z"></path></g></g><g id="Livello_3"></g><g id="Livello_4"></g><g id="Livello_5"></g><g id="Livello_6"></g><g id="Livello_7"></g><g id="Livello_8"></g><g id="Livello_9"></g><g id="Livello_10"></g><g id="Livello_11"></g><g id="Livello_12"></g><g id="Livello_13"></g><g id="Livello_14"></g><g id="Livello_15"></g><g id="Livello_16"></g><g id="Livello_17"></g><g id="Livello_18"></g><g id="Livello_19"></g><g id="Livello_20"></g><g id="Livello_21"></g><g id="Livello_22"></g><g id="Livello_23"></g><g id="Livello_24"></g><g id="Livello_25"></g><g id="Livello_26"></g><g id="Livello_27"></g><g id="Livello_28"></g><g id="Livello_29"></g><g id="Livello_30"></g></svg>